<svg
  viewBox="0 0 1024 1024"
  xmlns="http://www.w3.org/2000/svg"
>
  <path
    d="M296.96 211.626667h430.08c13.653333 0 27.306667 6.826667 37.546667 17.066666 10.24 10.24 13.653333 23.893333 13.653333 37.546667V750.933333c0 37.546667-17.066667 54.613333-51.2 54.613334H296.96c-13.653333 0-27.306667-6.826667-37.546667-17.066667-10.24-10.24-13.653333-23.893333-13.653333-37.546667V269.653333c0-13.653333 3.413333-27.306667 13.653333-37.546666 10.24-13.653333 20.48-20.48 37.546667-20.48z m0 54.613333V757.76h430.08V269.653333v-3.413333H296.96z"
  />
  <path
    d="M481.28 334.506667H648.533333c13.653333 0 27.306667 10.24 27.306667 27.306666 0 13.653333-10.24 27.306667-27.306667 27.306667h-167.253333c-13.653333 0-27.306667-10.24-27.306667-27.306667 3.413333-17.066667 13.653333-27.306667 27.306667-27.306666zM481.28 484.693333H648.533333c13.653333 0 27.306667 10.24 27.306667 27.306667 0 13.653333-10.24 27.306667-27.306667 27.306667h-167.253333c-13.653333 0-27.306667-10.24-27.306667-27.306667 3.413333-13.653333 13.653333-27.306667 27.306667-27.306667zM481.28 638.293333H648.533333c13.653333 0 27.306667 10.24 27.306667 27.306667 0 13.653333-10.24 27.306667-27.306667 27.306667h-167.253333c-13.653333 0-27.306667-10.24-27.306667-27.306667 3.413333-17.066667 13.653333-27.306667 27.306667-27.306667z"
  />
  <path
    d="M419.84 361.813333v6.826667c0 3.413333 0 3.413333-3.413333 6.826667 0 3.413333 0 3.413333-3.413334 6.826666l-3.413333 3.413334-3.413333 3.413333s-3.413333 3.413333-6.826667 3.413333-3.413333 0-6.826667 3.413334h-13.653333c-3.413333 0-3.413333 0-6.826667-3.413334-3.413333 0-3.413333 0-6.826666-3.413333l-3.413334-3.413333-3.413333-3.413334s-3.413333-3.413333-3.413333-6.826666 0-3.413333-3.413334-6.826667v-6.826667-6.826666c0-3.413333 0-3.413333 3.413334-6.826667 0-3.413333 0-3.413333 3.413333-6.826667l3.413333-3.413333 3.413334-3.413333s3.413333-3.413333 6.826666-3.413334 3.413333 0 6.826667-3.413333h13.653333c3.413333 0 3.413333 0 6.826667 3.413333 3.413333 0 3.413333 0 6.826667 3.413334l3.413333 3.413333 3.413333 3.413333s3.413333 3.413333 3.413334 6.826667 0 3.413333 3.413333 6.826667 0 3.413333 0 6.826666zM419.84 512v6.826667c0 3.413333 0 3.413333-3.413333 6.826666 0 3.413333 0 3.413333-3.413334 6.826667l-3.413333 3.413333-3.413333 3.413334s-3.413333 3.413333-6.826667 3.413333-3.413333 0-6.826667 3.413333h-13.653333c-3.413333 0-3.413333 0-6.826667-3.413333-3.413333 0-3.413333 0-6.826666-3.413333l-3.413334-3.413334-3.413333-3.413333s-3.413333-3.413333-3.413333-6.826667 0-3.413333-3.413334-6.826666V512v-6.826667c0-3.413333 0-3.413333 3.413334-6.826666 0-3.413333 0-3.413333 3.413333-6.826667l3.413333-3.413333 3.413334-3.413334s3.413333-3.413333 6.826666-3.413333 3.413333 0 6.826667-3.413333 3.413333 0 6.826667 0h6.826666c3.413333 0 3.413333 0 6.826667 3.413333 3.413333 0 3.413333 0 6.826667 3.413333l3.413333 3.413334 3.413333 3.413333s3.413333 3.413333 3.413334 6.826667 0 3.413333 3.413333 6.826666v6.826667zM419.84 662.186667v6.826666c0 3.413333 0 3.413333-3.413333 6.826667 0 3.413333 0 3.413333-3.413334 6.826667l-3.413333 3.413333-3.413333 3.413333s-3.413333 3.413333-6.826667 3.413334-3.413333 0-6.826667 3.413333h-13.653333c-3.413333 0-3.413333 0-6.826667-3.413333-3.413333 0-3.413333 0-6.826666-3.413334l-3.413334-3.413333-3.413333-3.413333s-3.413333-3.413333-3.413333-6.826667 0-3.413333-3.413334-6.826667v-6.826666-6.826667c0-3.413333 0-3.413333 3.413334-6.826667 0-3.413333 0-3.413333 3.413333-6.826666l3.413333-3.413334 3.413334-3.413333s3.413333-3.413333 6.826666-3.413333 3.413333 0 6.826667-3.413334h13.653333c3.413333 0 3.413333 0 6.826667 3.413334 3.413333 0 3.413333 0 6.826667 3.413333l3.413333 3.413333 3.413333 3.413334s3.413333 3.413333 3.413334 6.826666 0 3.413333 3.413333 6.826667 0 6.826667 0 6.826667z"
  />
</svg>