<svg
  width="200px"
  height="200.00px"
  viewBox="0 0 1024 1024"
  xmlns="http://www.w3.org/2000/svg"
>
<path
  d="M791.893333 457.386667H419.84c-34.133333 0-61.44 27.306667-61.44 61.44s27.306667 61.44 61.44 61.44h368.64c34.133333 0 61.44-27.306667 61.44-61.44 3.413333-34.133333-23.893333-61.44-58.026667-61.44z m-372.053333-92.16h368.64c34.133333 0 61.44-27.306667 61.44-61.44s-27.306667-61.44-61.44-61.44H419.84c-34.133333 0-61.44 27.306667-61.44 61.44 0 30.72 27.306667 61.44 61.44 61.44z m-187.733333 92.16c-34.133333 0-61.44 27.306667-61.44 61.44S197.973333 580.266667 232.106667 580.266667s61.44-27.306667 61.44-61.44c3.413333-34.133333-23.893333-61.44-61.44-61.44z m0 218.453333c-34.133333 0-61.44 27.306667-61.44 61.44s27.306667 61.44 61.44 61.44 61.44-27.306667 61.44-61.44c3.413333-34.133333-23.893333-61.44-61.44-61.44z m559.786666 0H419.84c-34.133333 0-61.44 27.306667-61.44 61.44s27.306667 61.44 61.44 61.44h368.64c34.133333 0 61.44-27.306667 61.44-61.44 3.413333-34.133333-23.893333-61.44-58.026667-61.44zM232.106667 242.346667c-34.133333 0-61.44 27.306667-61.44 61.44s27.306667 64.853333 61.44 64.853333S293.546667 341.333333 293.546667 307.2c3.413333-37.546667-23.893333-64.853333-61.44-64.853333z"
/>
</svg>