<svg
  width="200px"
  height="200.00px"
  viewBox="0 0 1024 1024"
  xmlns="http://www.w3.org/2000/svg"
>
  <path
    d="M512 170.666667c187.733333 0 341.333333 153.6 341.333333 341.333333s-153.6 341.333333-341.333333 341.333333S170.666667 699.733333 170.666667 512 324.266667 170.666667 512 170.666667z m-6.826667 474.453333c-51.2 0-92.16 37.546667-92.16 85.333333h187.733334c-3.413333-47.786667-44.373333-85.333333-95.573334-85.333333z m-98.986666-143.36c-3.413333 0-10.24 6.826667-20.48 20.48-20.48 34.133333-51.2 81.92-61.44 98.986667-6.826667 10.24-23.893333 30.72-13.653334 54.613333 10.24 23.893333 20.48 37.546667 27.306667 40.96h51.2c0-37.546667 34.133333-102.4 112.64-105.813333l85.333333-119.466667c-17.066667-3.413333-44.373333-10.24-75.093333-10.24 0 0-54.613333-3.413333-105.813333 20.48z m197.973333-6.826667l-81.92 112.64c78.506667 3.413333 116.053333 64.853333 116.053333 105.813334h47.786667s6.826667-3.413333 30.72-44.373334c10.24-23.893333 0-34.133333-10.24-51.2-17.066667-27.306667-51.2-81.92-54.613333-85.333333-3.413333-6.826667-13.653333-30.72-37.546667-37.546667-3.413333 3.413333-6.826667 3.413333-10.24 0z m-88.746667-215.04c-47.786667 0-88.746667 44.373333-88.746666 95.573334 0 54.613333 40.96 95.573333 88.746666 95.573333 47.786667 0 88.746667-44.373333 88.746667-95.573333 0-51.2-37.546667-95.573333-88.746667-95.573334z"
  />
</svg>