<svg
  viewBox="0 0 1024 1024"
  xmlns="http://www.w3.org/2000/svg"
>
<path
  d="M791.893333 791.893333H232.106667c-17.066667 0-27.306667-13.653333-27.306667-27.306666V300.373333c0-13.653333 13.653333-27.306667 27.306667-27.306666 17.066667 0 27.306667 13.653333 27.306666 27.306666v433.493334h529.066667c17.066667 0 27.306667 13.653333 27.306667 27.306666 3.413333 17.066667-10.24 30.72-23.893334 30.72z m-68.266666-85.333333h-58.026667c-17.066667 0-27.306667-13.653333-27.306667-27.306667V477.866667c0-17.066667 13.653333-27.306667 27.306667-27.306667h58.026667c17.066667 0 27.306667 13.653333 27.306666 27.306667v201.386666c0 13.653333-10.24 27.306667-27.306666 27.306667z m-163.84 0h-58.026667c-17.066667 0-27.306667-13.653333-27.306667-27.306667v-317.44c0-17.066667 13.653333-27.306667 27.306667-27.306666h58.026667c17.066667 0 27.306667 13.653333 27.306666 27.306666v317.44c0 13.653333-10.24 27.306667-27.306666 27.306667z m-163.84 0H337.92c-17.066667 0-27.306667-13.653333-27.306667-27.306667v-58.026666c0-17.066667 13.653333-27.306667 27.306667-27.306667h58.026667c17.066667 0 27.306667 13.653333 27.306666 27.306667v58.026666c3.413333 13.653333-10.24 27.306667-27.306666 27.306667z"
  fill="#2961F5"
/>
</svg>