<svg
  viewBox="0 0 1024 1024"
  xmlns="http://www.w3.org/2000/svg"
>
  <path
    d="M484.693333 477.866667c0-13.653333 10.24-27.306667 27.306667-27.306667 13.653333 0 27.306667 10.24 27.306667 27.306667v170.666666c0 13.653333-10.24 27.306667-27.306667 27.306667-13.653333 0-27.306667-10.24-27.306667-27.306667v-170.666666z"
  />
  <path
    d="M425.198933 524.834133l65.194667-65.160533a26.9312 26.9312 0 0 1 38.570667 0l65.194666 65.194667a26.9312 26.9312 0 0 1 0 38.570666c-9.659733 9.693867-24.132267 9.693867-36.181333-2.389333l-48.298667-48.264533-48.264533 48.264533a26.9312 26.9312 0 0 1-38.638933 0c-7.236267-12.0832-7.236267-26.555733 2.423466-36.181333z"
  />
  <path
    d="M314.026667 436.906667c-34.133333 6.826667-64.853333 20.48-88.746667 47.786666-30.72 30.72-44.373333 68.266667-44.373333 112.64 0 44.373333 17.066667 85.333333 47.786666 116.053334 30.72 30.72 71.68 47.786667 116.053334 47.786666h320.853333c47.786667 0 92.16-17.066667 126.293333-51.2s51.2-78.506667 51.2-126.293333c0-47.786667-17.066667-92.16-51.2-126.293333s-71.68-51.2-119.466666-51.2c-23.893333-81.92-81.92-122.88-177.493334-122.88-51.2 0-95.573333 17.066667-129.706666 51.2-30.72 27.306667-47.786667 64.853333-51.2 102.4z m47.786666 47.786666v-23.893333c0-85.333333 44.373333-126.293333 133.12-126.293333 71.68 0 116.053333 34.133333 129.706667 102.4l3.413333 20.48 23.893334-3.413334h10.24c85.333333 0 129.706667 44.373333 129.706666 129.706667s-40.96 129.706667-129.706666 129.706667H341.333333c-75.093333 0-112.64-37.546667-112.64-112.64 0-71.68 37.546667-109.226667 109.226667-112.64l23.893333-3.413334z"
  />
</svg>