<svg
  viewBox="0 0 1024 1024"
  xmlns="http://www.w3.org/2000/svg"
>
  <path
    d="M727.04 689.493333h44.373333c13.653333 0 27.306667-10.24 27.306667-23.893333V262.826667c0-13.653333-13.653333-23.893333-27.306667-23.893334h-44.373333c-13.653333 0-27.306667 10.24-27.306667 23.893334v399.36c0 13.653333 13.653333 27.306667 27.306667 27.306666z m-317.44 0h44.373333c13.653333 0 27.306667-10.24 27.306667-23.893333v-310.613333c0-13.653333-13.653333-23.893333-27.306667-23.893334H409.6c-13.653333 0-27.306667 10.24-27.306667 23.893334v310.613333c0 10.24 13.653333 23.893333 27.306667 23.893333z m160.426667 0H614.4c13.653333 0 27.306667-10.24 27.306667-23.893333v-211.626667c0-13.653333-10.24-23.893333-27.306667-23.893333h-44.373333c-13.653333 0-27.306667 10.24-27.306667 23.893333v211.626667c0 10.24 10.24 23.893333 27.306667 23.893333z m-317.44 0h44.373333c13.653333 0 27.306667-10.24 27.306667-23.893333v-122.88c0-13.653333-10.24-23.893333-27.306667-23.893333H252.586667c-13.653333 0-27.306667 10.24-27.306667 23.893333v122.88c0 10.24 13.653333 23.893333 27.306667 23.893333zM238.933333 785.066667h546.133334c17.066667 0 34.133333-13.653333 34.133333-30.72s-13.653333-30.72-34.133333-30.72H238.933333c-17.066667 0-34.133333 13.653333-34.133333 30.72s13.653333 30.72 34.133333 30.72z"
  />
</svg>