<svg
  viewBox="0 0 1024 1024"
  xmlns="http://www.w3.org/2000/svg"
>
  <path
    d="M430.08 245.76c54.613333-6.826667 105.813333-6.826667 160.426667 0 37.546667 6.826667 75.093333 13.653333 109.226666 23.893333 27.306667 6.826667 47.786667 23.893333 54.613334 51.2 13.653333 40.96 30.72 81.92 47.786666 122.88 3.413333 6.826667 13.653333 17.066667 17.066667 17.066667 30.72-3.413333 58.026667 13.653333 64.853333 40.96 3.413333 6.826667 3.413333 13.653333 0 23.893333l-40.96 10.24c3.413333 13.653333 3.413333 27.306667 6.826667 44.373334v201.386666c0 13.653333-3.413333 23.893333-13.653333 34.133334-40.96 6.826667-78.506667 6.826667-119.466667 3.413333-27.306667-17.066667-10.24-44.373333-20.48-68.266667H334.506667c-6.826667 23.893333-10.24 64.853333-20.48 68.266667-40.96 0-81.92 0-122.88-6.826667-10.24-10.24-13.653333-23.893333-13.653334-37.546666-3.413333-27.306667-3.413333-54.613333-3.413333-85.333334 0-51.2 0-105.813333 3.413333-157.013333L136.533333 522.24v-17.066667c10.24-27.306667 27.306667-51.2 64.853334-47.786666 3.413333 0 13.653333-10.24 17.066666-13.653334 13.653333-34.133333 27.306667-68.266667 37.546667-102.4 13.653333-47.786667 58.026667-85.333333 112.64-88.746666 20.48-3.413333 40.96-6.826667 61.44-6.826667z m-163.84 221.866667c160.426667 34.133333 327.68 34.133333 488.106667 0-13.653333-40.96-27.306667-75.093333-37.546667-112.64-3.413333-27.306667-30.72-47.786667-61.44-47.786667-78.506667-3.413333-157.013333-6.826667-232.106667-6.826667-23.893333 0-51.2 3.413333-75.093333 10.24-10.24 3.413333-20.48 10.24-27.306667 20.48-20.48 44.373333-37.546667 88.746667-54.613333 136.533334z m30.72 170.666666c13.653333 0 27.306667 0 40.96-3.413333 10.24-3.413333 20.48-10.24 23.893333-17.066667 3.413333-6.826667-6.826667-17.066667-13.653333-20.48-30.72-13.653333-61.44-27.306667-92.16-37.546666-17.066667-3.413333-34.133333-3.413333-37.546667 17.066666-6.826667 30.72 0 47.786667 23.893334 54.613334 17.066667 3.413333 37.546667 3.413333 54.613333 6.826666z m433.493333 0c20.48 0 40.96-3.413333 58.026667-6.826666 27.306667-6.826667 20.48-27.306667 20.48-47.786667 0-20.48-10.24-27.306667-27.306667-23.893333-37.546667 10.24-75.093333 23.893333-112.64 40.96-17.066667 6.826667-10.24 27.306667 6.826667 34.133333 20.48 0 37.546667 3.413333 54.613333 3.413333z"
  />
</svg>