<svg
  viewBox="0 0 1024 1024"
  xmlns="http://www.w3.org/2000/svg"
>
<path
  d="M512 853.333333C324.266667 853.333333 170.666667 699.733333 170.666667 512S324.266667 170.666667 512 170.666667s341.333333 153.6 341.333333 341.333333-153.6 341.333333-341.333333 341.333333z m17.066667-529.066666c-3.413333-10.24-13.653333-17.066667-23.893334-17.066667-10.24 0-20.48 6.826667-23.893333 17.066667L341.333333 641.706667c-3.413333 10.24 0 23.893333 6.826667 30.72 10.24 6.826667 23.893333 6.826667 30.72 0l126.293333-81.92 119.466667 81.92c10.24 6.826667 23.893333 6.826667 34.133333 0 10.24-6.826667 13.653333-20.48 6.826667-30.72l-136.533333-317.44z"
  fill="#1EBB9D"
/>
</svg>