<svg
  viewBox="0 0 1024 1024"
  xmlns="http://www.w3.org/2000/svg"
>
<path
  d="M822.613333 204.8H245.76c-20.48 0-30.72 10.24-30.72 30.72 0 20.48 10.24 30.72 30.72 30.72h576.853333c20.48 0 30.72-10.24 30.72-30.72 0-20.48-10.24-30.72-30.72-30.72zM822.613333 730.453333H245.76c-20.48 0-30.72 10.24-30.72 30.72 0 20.48 10.24 30.72 30.72 30.72h576.853333c20.48 0 30.72-10.24 30.72-30.72 0-20.48-10.24-30.72-30.72-30.72zM590.506667 556.373333h-341.333334c-20.48 0-30.72 10.24-30.72 30.72 0 20.48 10.24 30.72 30.72 30.72h341.333334c20.48 0 30.72-10.24 30.72-30.72-3.413333-20.48-13.653333-30.72-30.72-30.72zM590.506667 378.88h-341.333334c-20.48 0-30.72 10.24-30.72 30.72 0 20.48 10.24 30.72 30.72 30.72h341.333334c20.48 0 30.72-10.24 30.72-30.72-3.413333-20.48-13.653333-30.72-30.72-30.72zM849.92 512l-157.013333 109.226667c-3.413333 3.413333-6.826667 3.413333-10.24 0-3.413333-3.413333-6.826667-6.826667-6.826667-10.24v-221.866667c0-3.413333 3.413333-6.826667 6.826667-10.24 3.413333-3.413333 6.826667 0 10.24 0l157.013333 109.226667c3.413333 10.24 3.413333 20.48 0 23.893333z"
  fill="#1D2129"
/>
</svg>