<svg
  width="200px"
  height="200.00px"
  viewBox="0 0 1024 1024"
  xmlns="http://www.w3.org/2000/svg"
>
<path
  d="M950.857143 384C844.8 237.714286 687.542857 146.285714 512 146.285714S179.2 237.714286 73.142857 384C25.6 446.171429 25.6 541.257143 73.142857 607.085714c106.057143 146.285714 263.314286 237.714286 438.857143 237.714286s332.8-91.428571 438.857143-237.714286c47.542857-65.828571 47.542857-160.914286 0-223.085714z m-438.857143 336.457143c-120.685714 0-219.428571-98.742857-219.428571-219.428572s98.742857-219.428571 219.428571-219.428571 219.428571 98.742857 219.428571 219.428571-98.742857 219.428571-219.428571 219.428572z m0-373.028572c-84.114286 0-153.6 69.485714-153.6 153.6 0 84.114286 69.485714 153.6 153.6 153.6s153.6-69.485714 153.6-153.6c0-84.114286-69.485714-153.6-153.6-153.6z"
/>
</svg>