<svg
  viewBox="0 0 1024 1024"
  xmlns="http://www.w3.org/2000/svg"
>
<path
  d="M273.066667 0h477.866666c150.186667 0 273.066667 122.88 273.066667 273.066667v477.866666c0 150.186667-122.88 273.066667-273.066667 273.066667H273.066667c-150.186667 0-273.066667-122.88-273.066667-273.066667V273.066667c0-150.186667 122.88-273.066667 273.066667-273.066667z"
  fill="#E9EFFD"
/>
<path
  d="M327.68 341.333333H580.266667c30.72 0 54.613333 23.893333 54.613333 54.613334v44.373333l61.44-44.373333c10.24-6.826667 23.893333-10.24 37.546667-3.413334 10.24 6.826667 20.48 17.066667 20.48 30.72v167.253334c0 13.653333-6.826667 27.306667-20.48 30.72-13.653333 6.826667-27.306667 3.413333-37.546667-3.413334l-61.44-47.786666v54.613333c0 30.72-23.893333 54.613333-54.613333 54.613333H327.68c-30.72 0-54.613333-23.893333-54.613333-54.613333v-232.106667c0-27.306667 23.893333-51.2 54.613333-51.2z m30.72 40.96c-23.893333 0-40.96 20.48-40.96 40.96s20.48 40.96 40.96 40.96H443.733333c23.893333 0 40.96-20.48 40.96-40.96s-20.48-40.96-40.96-40.96h-85.333333z"
  fill="#2961F5"
/>
</svg>