<svg
  viewBox="0 0 1024 1024"
  xmlns="http://www.w3.org/2000/svg"
>
<path
  d="M853.333333 768V337.92c0-34.133333-17.066667-51.2-47.786666-47.786667h-269.653334c-10.24 0-20.48-3.413333-23.893333-6.826666-6.826667-13.653333-17.066667-30.72-30.72-51.2s-30.72-30.72-44.373333-27.306667H228.693333C187.733333 204.8 170.666667 225.28 170.666667 262.826667v501.76c0 40.96 17.066667 58.026667 47.786666 54.613333h593.92c30.72 0 44.373333-17.066667 40.96-51.2z m-556.373333-102.4c-23.893333 0-40.96-17.066667-40.96-40.96s17.066667-40.96 40.96-40.96 40.96 17.066667 40.96 40.96-17.066667 40.96-40.96 40.96z m0-150.186667c-23.893333 0-40.96-17.066667-40.96-40.96s17.066667-40.96 40.96-40.96 40.96 17.066667 40.96 40.96-17.066667 40.96-40.96 40.96z m402.773333 150.186667h-259.413333c-20.48 0-37.546667-17.066667-37.546667-37.546667s17.066667-37.546667 37.546667-37.546666h259.413333c20.48 0 37.546667 17.066667 37.546667 37.546666s-17.066667 37.546667-37.546667 37.546667z m0-153.6h-259.413333c-20.48 0-37.546667-17.066667-37.546667-37.546667 0-20.48 17.066667-37.546667 37.546667-37.546666h259.413333c20.48 0 37.546667 17.066667 37.546667 37.546666 0 20.48-17.066667 37.546667-37.546667 37.546667z"
/>
</svg>