<svg
  viewBox="0 0 1024 1024"
  xmlns="http://www.w3.org/2000/svg"
>
<path
  d="M505.173333 631.466667c-44.373333 0-81.92-17.066667-116.053333-47.786667-30.72-30.72-47.786667-68.266667-47.786667-116.053333v-136.533334c0-44.373333 17.066667-81.92 47.786667-116.053333 30.72-30.72 68.266667-47.786667 116.053333-47.786667 44.373333 0 81.92 17.066667 116.053334 47.786667 30.72 30.72 47.786667 68.266667 47.786666 116.053333v136.533334c0 44.373333-17.066667 81.92-47.786666 116.053333-34.133333 30.72-71.68 47.786667-116.053334 47.786667z m0-51.2c75.093333 0 109.226667-37.546667 109.226667-109.226667v-136.533333c0-30.72-10.24-58.026667-34.133333-78.506667-20.48-20.48-47.786667-34.133333-78.506667-34.133333-75.093333 0-109.226667 37.546667-109.226667 112.64v136.533333c0 71.68 37.546667 109.226667 112.64 109.226667z m-238.933333-136.533334c-17.066667 0-27.306667 10.24-27.306667 23.893334 0 71.68 27.306667 136.533333 78.506667 187.733333 44.373333 44.373333 98.986667 71.68 160.426667 75.093333V785.066667h-109.226667c-13.653333 0-27.306667 10.24-27.306667 27.306666s10.24 27.306667 27.306667 27.306667h273.066667c13.653333 0 27.306667-10.24 27.306666-27.306667s-13.653333-27.306667-27.306666-27.306666h-109.226667v-51.2c61.44-6.826667 116.053333-30.72 160.426667-75.093334 51.2-51.2 78.506667-112.64 78.506666-187.733333 0-13.653333-10.24-27.306667-27.306666-27.306667s-27.306667 10.24-27.306667 23.893334c0 58.026667-20.48 109.226667-61.44 150.186666S563.2 682.666667 505.173333 682.666667c-58.026667 0-109.226667-20.48-150.186666-61.44-40.96-40.96-61.44-92.16-61.44-150.186667-3.413333-17.066667-13.653333-27.306667-27.306667-27.306667z"
/>
</svg>