<svg
  viewBox="0 0 1024 1024"
  xmlns="http://www.w3.org/2000/svg"
>
<path
  d="M422.4 198.4c57.6-9.6 118.4-9.6 179.2 0 41.6 6.4 83.2 12.8 121.6 25.6 28.8 6.4 51.2 28.8 60.8 54.4 16 44.8 35.2 92.8 54.4 137.6 3.2 6.4 12.8 19.2 19.2 19.2 32-6.4 64 16 70.4 48 3.2 9.6 3.2 16 0 25.6l-48 12.8c3.2 16 6.4 32 6.4 48v220.8c0 12.8-6.4 25.6-12.8 35.2-44.8 9.6-89.6 9.6-131.2 3.2-32-19.2-12.8-51.2-22.4-76.8H313.6c-6.4 25.6-12.8 73.6-22.4 76.8-44.8 6.4-89.6 6.4-137.6 0-9.6-12.8-16-25.6-16-41.6-3.2-32-3.2-60.8-3.2-92.8 0-57.6 0-115.2 3.2-172.8L96 505.6v-19.2c12.8-32 28.8-57.6 70.4-54.4 6.4 0 16-9.6 16-16 16-35.2 28.8-73.6 41.6-108.8 16-54.4 64-92.8 124.8-99.2 25.6-6.4 51.2-6.4 73.6-9.6z m-182.4 246.4c179.2 35.2 364.8 35.2 540.8 0-16-44.8-32-83.2-41.6-124.8-6.4-32-35.2-54.4-70.4-54.4-86.4-3.2-172.8-6.4-259.2-6.4-28.8 0-54.4 6.4-83.2 12.8-9.6 3.2-19.2 12.8-25.6 22.4-22.4 48-41.6 96-60.8 150.4z m35.2 188.8c16 0 28.8 0 44.8-3.2 12.8-3.2 22.4-9.6 25.6-19.2 3.2-6.4-6.4-19.2-16-25.6-35.2-16-67.2-28.8-102.4-38.4-16-6.4-38.4-3.2-41.6 19.2-9.6 35.2 0 54.4 25.6 60.8 22.4 3.2 41.6 3.2 64 6.4z m476.8 0c22.4 0 44.8-3.2 64-6.4 32-6.4 25.6-32 22.4-51.2 0-22.4-12.8-32-28.8-25.6-41.6 12.8-83.2 28.8-124.8 44.8-19.2 9.6-12.8 32 9.6 35.2 22.4 0 38.4 3.2 57.6 3.2z"
  fill="#2961F5"
/>
</svg>