<svg
  viewBox="0 0 1024 1024"
  xmlns="http://www.w3.org/2000/svg"
>
<path
  d="M512 170.666667C324.266667 170.666667 170.666667 324.266667 170.666667 512s153.6 341.333333 341.333333 341.333333 341.333333-153.6 341.333333-341.333333S699.733333 170.666667 512 170.666667z m143.36 327.68c-10.24 20.48-27.306667 34.133333-47.786667 44.373333-20.48 10.24-44.373333 13.653333-71.68 13.653333H477.866667V716.8h-78.506667V307.2h129.706667c30.72 0 54.613333 3.413333 75.093333 13.653333 20.48 10.24 40.96 30.72 51.2 47.786667s17.066667 40.96 17.066667 64.853333-6.826667 47.786667-17.066667 64.853334z"
  fill="#2961F5"
/>
<path
  d="M570.026667 471.04c-13.653333 10.24-30.72 13.653333-54.613334 13.653333H477.866667v-105.813333h40.96c23.893333 0 40.96 3.413333 54.613333 13.653333 13.653333 10.24 20.48 23.893333 20.48 37.546667s-10.24 30.72-23.893333 40.96z"
  fill="#2961F5"
/>
</svg>