<svg
  viewBox="0 0 1024 1024"
  xmlns="http://www.w3.org/2000/svg"
>
<path
  d="M888.149333 946.062222L83.626667 141.482667l60.302222-60.302223 804.522667 804.522667-60.302223 60.302222zM193.422222 290.133333c-39.822222 34.133333-73.955556 68.266667-102.4 108.088889-45.511111 62.577778-45.511111 153.6 0 216.177778 102.4 136.533333 256 227.555556 420.977778 227.555556 68.266667 0 130.844444-11.377778 187.733333-39.822223l-96.711111-96.711111c-28.444444 11.377778-56.888889 17.066667-91.022222 17.066667-113.777778 0-210.488889-96.711111-210.488889-210.488889 0-34.133333 5.688889-62.577778 17.066667-91.022222L193.422222 290.133333z m227.555556 28.444445L312.888889 216.177778C375.466667 187.733333 443.733333 170.666667 512 170.666667c170.666667 0 318.577778 85.333333 420.977778 227.555555 45.511111 62.577778 45.511111 153.6 0 216.177778-34.133333 45.511111-68.266667 79.644444-108.088889 113.777778l-119.466667-119.466667c11.377778-28.444444 22.755556-56.888889 22.755556-91.022222 0-113.777778-96.711111-210.488889-210.488889-210.488889-39.822222-5.688889-68.266667 0-96.711111 11.377778z m-51.2 153.6c0 11.377778-5.688889 22.755556-5.688889 39.822222 0 79.644444 68.266667 147.911111 147.911111 147.911111 11.377778 0 28.444444 0 39.822222-5.688889L369.777778 472.177778z m284.444444 79.644444L472.177778 369.777778c11.377778-5.688889 22.755556-5.688889 39.822222-5.688889 79.644444 0 147.911111 68.266667 147.911111 147.911111 0 11.377778-5.688889 28.444444-5.688889 39.822222z"
/>
</svg>