<svg
  viewBox="0 0 1024 1024"
  xmlns="http://www.w3.org/2000/svg">
  <path
    d="M211.2 256h384c44.8 0 83.2 38.4 83.2 83.2v64l96-64c19.2-12.8 38.4-12.8 57.6-6.4 19.2 6.4 32 25.6 32 44.8v256c0 19.2-12.8 38.4-32 51.2-19.2 6.4-38.4 6.4-57.6-6.4l-96-70.4v83.2c0 44.8-38.4 83.2-83.2 83.2h-384C166.4 768 128 729.6 128 684.8V339.2C128 294.4 166.4 256 211.2 256zM256 320h-12.8c-6.4 0-6.4 0-12.8 6.4-6.4 0-6.4 6.4-12.8 6.4s-6.4 6.4-12.8 6.4c0 0-6.4 6.4-6.4 12.8s-6.4 6.4-6.4 12.8 0 6.4-6.4 12.8c6.4 0 6.4 0 6.4 6.4v12.8c0 6.4 0 6.4 6.4 12.8 0 6.4 6.4 6.4 6.4 12.8s6.4 6.4 6.4 12.8c0 0 6.4 6.4 12.8 6.4s6.4 6.4 12.8 6.4 6.4 0 12.8 6.4c0-6.4 0-6.4 6.4-6.4h140.8c6.4 0 6.4 0 12.8-6.4 6.4 0 6.4-6.4 12.8-6.4s6.4-6.4 12.8-6.4c0 0 6.4-6.4 6.4-12.8s6.4-6.4 6.4-12.8 0-6.4 6.4-12.8C448 390.4 448 390.4 448 384v-12.8c0-6.4 0-6.4-6.4-12.8 0-6.4-6.4-6.4-6.4-12.8s-6.4-6.4-6.4-12.8c0 0-6.4-6.4-12.8-6.4S409.6 320 403.2 320c0 6.4 0 0-6.4 0H256z"
  />
</svg>