<svg
  viewBox="0 0 1024 1024"
  xmlns="http://www.w3.org/2000/svg"
>
<path
  d="M785.066667 337.92c0 17.066667-13.653333 27.306667-30.72 27.306667h-341.333334c-17.066667 0-30.72-13.653333-30.72-27.306667V283.306667c0-17.066667 13.653333-27.306667 30.72-27.306667h344.746667c17.066667 0 30.72 13.653333 30.72 27.306667v54.613333z m0 191.146667c0 17.066667-13.653333 27.306667-30.72 27.306666h-341.333334c-17.066667 0-30.72-13.653333-30.72-27.306666V477.866667c0-17.066667 13.653333-27.306667 30.72-27.306667h344.746667c17.066667 0 30.72 13.653333 30.72 27.306667v51.2z m0 194.56c0 17.066667-13.653333 27.306667-30.72 27.306666h-341.333334c-17.066667 0-30.72-13.653333-30.72-27.306666v-54.613334c0-17.066667 13.653333-27.306667 30.72-27.306666h344.746667c17.066667 0 30.72 13.653333 30.72 27.306666v54.613334z m-436.906667-375.466667c0 6.826667-6.826667 13.653333-17.066667 17.066667H256c-10.24 0-17.066667-6.826667-17.066667-17.066667V273.066667c0-6.826667 6.826667-13.653333 17.066667-17.066667h78.506667c10.24 0 17.066667 6.826667 17.066666 17.066667l-3.413333 75.093333z m0 194.56c0 6.826667-6.826667 13.653333-17.066667 17.066667H256c-10.24 0-17.066667-6.826667-17.066667-17.066667v-75.093333c0-6.826667 6.826667-13.653333 17.066667-17.066667h78.506667c10.24 0 17.066667 6.826667 17.066666 17.066667l-3.413333 75.093333z m0 194.56c0 6.826667-6.826667 13.653333-17.066667 17.066667H256c-10.24-3.413333-17.066667-10.24-17.066667-17.066667v-75.093333c0-6.826667 6.826667-13.653333 17.066667-17.066667h78.506667c10.24 0 17.066667 6.826667 17.066666 17.066667l-3.413333 75.093333z"
  fill="#2961F5"
/>
</svg>