<svg
  viewBox="0 0 1024 1024"
  xmlns="http://www.w3.org/2000/svg"
>
<path
  d="M273.066667 0h477.866666c150.186667 0 273.066667 122.88 273.066667 273.066667v477.866666c0 150.186667-122.88 273.066667-273.066667 273.066667H273.066667c-150.186667 0-273.066667-122.88-273.066667-273.066667V273.066667c0-150.186667 122.88-273.066667 273.066667-273.066667z"
  fill="#FFEAD3"
/>
<path
  d="M512 273.066667c-112.64 0-204.8 92.16-204.8 204.8 0 58.026667 23.893333 109.226667 61.44 146.773333l143.36 146.773333 143.36-146.773333c37.546667-37.546667 61.44-92.16 61.44-146.773333 0-112.64-92.16-204.8-204.8-204.8z m0 296.96a93.252267 93.252267 0 0 1-92.16-92.16 93.252267 93.252267 0 0 1 92.16-92.16 93.252267 93.252267 0 0 1 92.16 92.16 93.252267 93.252267 0 0 1-92.16 92.16z"
  fill="#FF9722"
/>
</svg>